<svg width="32" height="32" viewBox="0 0 32 32" fill="none" xmlns="http://www.w3.org/2000/svg">
<circle cx="16" cy="16" r="14" fill="#18181B"/>
<path d="M16.0003 29.3334C23.3641 29.3334 29.3337 23.3638 29.3337 16C29.3337 8.63622 23.3641 2.66669 16.0003 2.66669C8.63653 2.66669 2.66699 8.63622 2.66699 16C2.66699 23.3638 8.63653 29.3334 16.0003 29.3334Z" stroke="#A1A1AA" stroke-width="2" stroke-linecap="round" stroke-linejoin="round"/>
<path d="M12 12.004C11.9993 11.7674 12.0616 11.5348 12.1804 11.3302C12.2993 11.1256 12.4705 10.9563 12.6764 10.8397C12.8823 10.7231 13.1155 10.6634 13.3521 10.6668C13.5887 10.6701 13.8201 10.7363 14.0227 10.8586L20.6853 14.8546C20.8837 14.9729 21.0479 15.1406 21.162 15.3413C21.2761 15.5421 21.336 15.7691 21.336 16C21.336 16.2309 21.2761 16.4578 21.162 16.6586C21.0479 16.8594 20.8837 17.0271 20.6853 17.1453L14.0227 21.1413C13.82 21.2637 13.5885 21.3299 13.3517 21.3332C13.115 21.3365 12.8817 21.2767 12.6758 21.1599C12.4698 21.0432 12.2987 20.8737 12.1799 20.6689C12.0612 20.4641 11.9991 20.2314 12 19.9946V12.004Z" fill="#FAFAFA"/>
</svg>
